<svg xmlns="http://www.w3.org/2000/svg" viewBox="0 0 1200 607" fill="none" role="img" aria-hidden="true">
  <defs>
    <linearGradient id="bg" x1="0" y1="0" x2="1200" y2="607" gradientUnits="userSpaceOnUse">
      <stop stop-color="#0a0a0a"/>
      <stop offset="1" stop-color="#1a1a1a"/>
    </linearGradient>
  </defs>
  <rect width="1200" height="607" fill="url(#bg)"/>
  <g transform="translate(700 100)" opacity="0.85">
    <rect x="0" y="180" width="50" height="120" rx="4" fill="#333"/>
    <rect x="70" y="140" width="50" height="160" rx="4" fill="#444"/>
    <rect x="140" y="100" width="50" height="200" rx="4" fill="#555"/>
    <rect x="210" y="60" width="50" height="240" rx="4" fill="#005696" opacity="0.8"/>
    <rect x="280" y="20" width="50" height="280" rx="4" fill="#1a7fc4" opacity="0.9"/>
    <path d="M25 180 L95 140 L165 100 L235 60 L305 20" stroke="#e87722" stroke-width="3" fill="none" stroke-linecap="round"/>
    <circle cx="305" cy="20" r="8" fill="#e87722"/>
    <rect x="-20" y="310" width="380" height="2" fill="#333"/>
  </g>
  <g transform="translate(720 60)" opacity="0.15">
    <circle cx="200" cy="80" r="60" stroke="#fff" stroke-width="1.5" fill="none"/>
    <circle cx="200" cy="80" r="40" stroke="#fff" stroke-width="1" fill="none"/>
    <circle cx="200" cy="80" r="20" stroke="#fff" stroke-width="1" fill="none"/>
  </g>
  <text x="600" y="420" text-anchor="middle" fill="#fff" font-family="Inter, Arial, sans-serif" font-size="80" font-weight="800" letter-spacing="6">DIGITAL</text>
  <text x="600" y="495" text-anchor="middle" fill="#fff" font-family="Inter, Arial, sans-serif" font-size="48" font-weight="700" letter-spacing="8" opacity="0.9">MARKETING</text>
</svg>
